<svg xmlns="http://www.w3.org/2000/svg" viewBox="0 0 300 300">
  <defs>
    <style>
      .a {
        fill: #fff;
        stroke: #000;
        stroke-miterlimit: 10;
        stroke-width: 3px;
      }
    </style>
  </defs>
  <title>armor</title>
  <g>
    <path class="a" d="M247.11,145l-10-17.33a27,27,0,1,1-26.88-46.55L202.89,68.4a10,10,0,0,0-8.66-5H177a27,27,0,0,1-54,0H105.77a10,10,0,0,0-8.66,5L89.48,81.62a27,27,0,1,1-27,46.7L52.89,145a10,10,0,0,0,0,10l10.67,18.49a27,27,0,1,1,27,46.76l6.55,11.35a10,10,0,0,0,8.66,5H123a27,27,0,0,1,54,0h17.23a10,10,0,0,0,8.66-5l10.41-18a27,27,0,1,1,26.37-45.67L247.11,155A10,10,0,0,0,247.11,145ZM150,177a27,27,0,1,1,27-27A27,27,0,0,1,150,177Z"/>
    <path d="M106.67,229.5c3.21,0,3.22-5,0-5s-3.23,5,0,5Z"/>
    <path d="M61,152.17c3.22,0,3.22-5,0-5s-3.22,5,0,5Z"/>
    <path d="M105.67,75.5c3.21,0,3.22-5,0-5s-3.23,5,0,5Z"/>
    <path d="M194.33,73.83c3.22,0,3.23-5,0-5s-3.22,5,0,5Z"/>
    <path d="M237.33,149.5c3.22,0,3.23-5,0-5s-3.22,5,0,5Z"/>
    <path d="M195.67,230.17c3.21,0,3.22-5,0-5s-3.23,5,0,5Z"/>
    <path d="M131.33,180.5c3.22,0,3.23-5,0-5s-3.22,5,0,5Z"/>
    <path d="M169.67,179.83c3.21,0,3.22-5,0-5s-3.23,5,0,5Z"/>
    <path d="M184,148.83c3.22,0,3.22-5,0-5s-3.22,5,0,5Z"/>
    <path d="M166.67,122.17c3.21,0,3.22-5,0-5s-3.23,5,0,5Z"/>
    <path d="M131,123.17c3.22,0,3.22-5,0-5s-3.22,5,0,5Z"/>
    <path d="M116.33,151.5c3.22,0,3.23-5,0-5s-3.22,5,0,5Z"/>
  </g>
</svg>
