<svg xmlns="http://www.w3.org/2000/svg" viewBox="0 0 300 300">
  <defs>
    <style>
      .a {
        fill: #fff;
      }
    </style>
  </defs>
  <title>attack</title>
  <g>
    <path class="a" d="M150,103.17A39.78,39.78,0,0,0,189.77,63.4H110.23A39.78,39.78,0,0,0,150,103.17Z"/>
    <path d="M131.26,61.9a2.8,2.8,0,0,0-.59-.07,2.73,2.73,0,0,0-.59.07H108.73v1.5c0,.53,0,1.07,0,1.6h3a.34.34,0,0,1,0-.1h15a.46.46,0,0,0,.07.07c.9.73,1.83,1.54,2.8,2.22L146.3,80.72a2.61,2.61,0,0,0,3.41-.06,2.42,2.42,0,0,0,.4-.25L167.6,66.76a2.23,2.23,0,0,0,.62-.74,7.87,7.87,0,0,0,.88-1,.53.53,0,0,0,.06-.1h19.08a.34.34,0,0,1,0,.1h3c0-.53,0-1.07,0-1.6V61.9Z"/>
  </g>
</svg>
