<svg xmlns="http://www.w3.org/2000/svg" viewBox="0 0 300 300">
  <defs>
    <style>
      .a {
        fill: #fff;
      }
    </style>
  </defs>
  <title>connection</title>
  <g>
    <path class="a" d="M150,103.17A39.78,39.78,0,0,0,189.77,63.4H110.23A39.78,39.78,0,0,0,150,103.17Z"/>
    <path d="M108.73,61.9v1.5c0,.53,0,1.07,0,1.6h3a.34.34,0,0,1,0-.1H147.4l-.06,12.74c-5.23.56-8.43,4.82-8.57,10.33-.15,5.68,5.88,9.37,10.95,9.94,6.36.71,9.27-4.28,9.16-10-.1-5.5-3.25-9.49-8.54-10.12l.06-12.89h37.84a.34.34,0,0,1,0,.1h3c0-.53,0-1.07,0-1.6V61.9Zm47.15,26c.06,4.54-2,8.06-7.21,6.73-2.92-.74-6.68-2.73-6.92-6.16a7.1,7.1,0,0,1,5.58-7.79v2.57a4.69,4.69,0,0,0-3.54,3.24c-.76,2.28.11,4,1.92,5.44a6.7,6.7,0,0,0,5.93,1.16c1.29-.44,2-1.92,2.25-3.41a4,4,0,0,0-.14-3.82,6.72,6.72,0,0,0-3.42-2.36c0-.9,0-1.79,0-2.69C153.84,81.43,155.84,84.11,155.88,87.91Z"/>
  </g>
</svg>
