<svg xmlns="http://www.w3.org/2000/svg" viewBox="0 0 300 300">
  <defs>
    <style>
      .a {
        fill: #fff;
      }
    </style>
  </defs>
  <title>fire</title>
  <g>
    <circle class="a" cx="150" cy="150" r="30"/>
    <path d="M139.93,163.37c-7.23-1.4-5.38-9.74-3.81-14.74l-4.57.6a29.69,29.69,0,0,0,4.37,6.66,2.52,2.52,0,0,0,4.18-1.11,82.33,82.33,0,0,1,5-16.83h-4.82a70.69,70.69,0,0,0,3.84,10.16c.75,1.61,3.59,1.67,4.32,0a65.62,65.62,0,0,1,7.34-12.71l-4.57-.6c.8,2.88,1.29,10.49,4.7,11.79s6.87-4.09,8.73-6l-4.26-1.77.33,11.73a2.53,2.53,0,0,0,3.76,2.16,66.94,66.94,0,0,0,6.76-4.28l-3.67-2.82a36.56,36.56,0,0,1-4.39,13c-.83,1.47.18,4,2.16,3.76,1.49-.2,2.75-.39,4.22-.69l-3.07-3.08a11.74,11.74,0,0,1-5.24,6.61c-2.71,1.71-.21,6,2.53,4.32a17.3,17.3,0,0,0,7.53-9.6c.65-1.92-1.33-3.43-3.08-3.07l-2.89.51,2.16,3.76A40.14,40.14,0,0,0,172.34,147c.27-1.88-1.69-4.25-3.68-2.82a68.52,68.52,0,0,1-6.75,4.27l3.76,2.16-.33-11.73a2.53,2.53,0,0,0-4.27-1.77c-1.09,1.1-3.74,4.6-4.91,4.81l2.44.64c-1.14-.95-2.1-7.22-2.61-9.07-.63-2.23-3.35-2.26-4.57-.6a65.7,65.7,0,0,0-7.34,12.72h4.32a61.2,61.2,0,0,1-3.34-9c-.75-2.57-3.93-2.16-4.82,0a81.89,81.89,0,0,0-5,16.83l4.18-1.1a24,24,0,0,1-3.59-5.65c-1-2-4-1.3-4.57.6-2.42,7.69-2.76,18.94,7.3,20.89,3.15.61,4.49-4.2,1.33-4.82Z"/>
  </g>
</svg>
