<svg xmlns="http://www.w3.org/2000/svg" viewBox="0 0 300 300">
  <defs>
    <style>
      .a {
        fill: #fff;
      }
    </style>
  </defs>
  <title>heart</title>
  <g>
    <circle class="a" cx="150" cy="150" r="30"/>
    <path d="M152,138.59a10.87,10.87,0,0,0-19.24,2.24c-3.8,10,4.88,16.16,10.2,23.07,3.87,5,12.56.06,8.63-5.05-2.18-2.83-4.75-5.23-7-7.95-1.07-1.26-2.43-2.86-2.63-4.58,0-.2.55-4,1.44-2.68,3.51,5.37,12.18.36,8.64-5Z"/>
    <path d="M151.36,144.62c1.24-1,2.9-2.62,4.33-1.39,1.72,1.48-.55,4.28-1.32,5.53-2.19,3.51-3.7,7.51-7.62,9.38-5.8,2.79-.73,11.41,5.05,8.64,4.84-2.32,7.41-6.59,10-11.06,2.74-4.64,5.41-8.37,3.88-14-1.08-4-3.89-7.81-8.13-8.79-5.17-1.19-9.45,1.65-13.3,4.66-5.07,3.95,2.05,11,7.07,7.07Z"/>
    <path d="M154.83,140.88l-5.4.61c-2.06.24-4.25.36-6.07,1.48a5.89,5.89,0,0,0-2.57,6.73,7,7,0,0,0,5,4.44c3.36,1,6-1.73,6.33-4.83a8.54,8.54,0,0,0-2.56-6.66,5.1,5.1,0,0,0-7.08,0c-4,3.69-.26,10.79,2.9,13.92,2.39,2.35,5.48,1.82,8.23.59a9,9,0,0,0,4.84-5.3c.88-2.29-.78-5-2.89-5.89a5,5,0,0,0-6.25,2l-1.12,1.79a5,5,0,1,0,8.63,5l1.13-1.78-9.14-3.85c.4-1,1.18-1.31.42-1s-.37,0,0,0l2.52.68c.77.5,1,1.1.26,0q-.42-.65-.78-1.32a6.92,6.92,0,0,1-.77-2.08v2.66l.06-.43L149.25,150l.28-.26h-7.08c-.29-.31-.26-1.48-.36-.41l6.33-4.82c.46.28.46.26,0-.06l1.79,1.79.14.38v2.66l.13-.41-1.28,2.2c-1.45,1.37-1.19.54-.43.52a20,20,0,0,0,2-.23l4.05-.46c2.68-.31,5-2.08,5-5,0-2.47-2.3-5.31-5-5Z"/>
    <path d="M149,167.33c6.43,0,6.45-10,0-10s-6.45,10,0,10Z"/>
  </g>
</svg>
