<svg xmlns="http://www.w3.org/2000/svg" viewBox="0 0 300 300">
  <defs>
    <style>
      .a {
        fill: #fff;
      }
    </style>
  </defs>
  <title>ice</title>
  <g>
    <circle class="a" cx="150" cy="150" r="30"/>
    <path d="M146.55,128.75l-.16,42c0,3.22,5,3.22,5,0l.16-42c0-3.22-5-3.22-5,0Z"/>
    <path d="M128.86,139.15a274.51,274.51,0,0,0,32.24,30.72c2.48,2,6-1.51,3.53-3.53a273.64,273.64,0,0,1-32.23-30.72c-2.15-2.41-5.67,1.13-3.54,3.53Z"/>
    <path d="M134.49,163.84c6.58-.27,12.1-3.57,17.6-6.92a159.78,159.78,0,0,0,16.72-11.84c2.51-2-1.05-5.53-3.54-3.54a148.65,148.65,0,0,1-14.17,10.11c-5,3.16-10.5,6.94-16.61,7.19-3.2.13-3.22,5.14,0,5Z"/>
    <path d="M159.26,139.5c0,2.35-.75,6.07.68,8.09a7.59,7.59,0,0,0,3.11,2l4.28,2.1c2.87,1.42,5.41-2.89,2.52-4.31-1.82-.9-3.95-2.42-5.92-2.92.48.12.17,1.2.31,0a13.26,13.26,0,0,0,0-1.41l0-3.54c0-3.22-5-3.22-5,0Z"/>
    <path d="M143.7,133.8l3.93,3.77c1,.94,2,2.27,3.3,2.72,3.19,1.08,4.7-3.23,5.62-5.43.52-1.25-.57-2.73-1.75-3.07a2.56,2.56,0,0,0-3.07,1.75c-.17.39-.79,2.11-1.12,2.26l1.93-.25c.75.52.78.49.1-.11l-.49-.47-1.72-1.64-3.19-3.07c-2.33-2.22-5.87,1.31-3.54,3.54Z"/>
    <path d="M129.75,146c2.16,0,5.57.64,7.36-.87s1.82-5,2.23-7.22a2.57,2.57,0,0,0-1.75-3.07,2.52,2.52,0,0,0-3.07,1.75l-.55,2.95a6.52,6.52,0,0,1-.53,2.37l.9-.9h-1.8l-2.79,0c-3.22,0-3.22,5,0,5Z"/>
    <path d="M132.8,159c.66.3,2.15.78,2.4,1.56.14.43-.25,1.19-.37,1.61l-.72,2.48c-.91,3.1,3.91,4.42,4.82,1.33.68-2.34,1.89-5,.87-7.36a8.27,8.27,0,0,0-4.48-3.94c-2.9-1.33-5.45,3-2.52,4.32Z"/>
    <path d="M144,173a6.46,6.46,0,0,0,2.21-.54,6.21,6.21,0,0,1,1.48-.74c1.24-.16,2.34,1.13,3.14,1.9,2.32,2.22,5.86-1.31,3.53-3.54a11,11,0,0,0-5-3.2,6.26,6.26,0,0,0-3,0c-.68.19-1.68,1-2.35,1.1-3.17.31-3.21,5.31,0,5Z"/>
    <path d="M162.39,170l-.3-2.45a11.59,11.59,0,0,0-.15-1.32l0-.35c-.29.93-.57,1.23-.84.91a12.72,12.72,0,0,0,2.33-.23l2.84-.29a2.56,2.56,0,0,0,2.5-2.5,2.52,2.52,0,0,0-2.5-2.5l-4.14.41c-1.31.13-2.7.15-3.77,1-2.17,1.8-1.24,4.89-1,7.29a2.59,2.59,0,0,0,2.5,2.5,2.51,2.51,0,0,0,2.5-2.5Z"/>
  </g>
</svg>
