<svg xmlns="http://www.w3.org/2000/svg" viewBox="0 0 300 300">
  <defs>
    <style>
      .a {
        fill: #fff;
      }
    </style>
  </defs>
  <title>protection</title>
  <g>
    <path class="a" d="M150,103.17A39.78,39.78,0,0,0,189.77,63.4H110.23A39.78,39.78,0,0,0,150,103.17Z"/>
    <path d="M111.76,64.9h76.48a.34.34,0,0,1,0,.1h3c0-.53,0-1.07,0-1.6V61.9H108.73v1.5c0,.53,0,1.07,0,1.6h3A.34.34,0,0,1,111.76,64.9Z"/>
    <path d="M179.43,74.94c-3.6-2.82-6.66-4-10.61-1.26C166.92,75,165,77,162.39,76.83s-4.12-2.18-6.09-3.39a9.73,9.73,0,0,0-7-1.59c-2.22.43-3.65,2-5.58,3-5.51,2.85-7.51-.78-11.91-2.5s-8.49-.18-11.29,3.45c-1.18,1.53,1.43,3,2.59,1.51,5.2-6.74,10.44,1.21,16,2,4.82.65,7.17-4.43,11.65-4.62s7,5.12,11.69,5.17c5.38,0,9.93-6.68,14.92-2.77C178.81,78.24,181,76.14,179.43,74.94Z"/>
  </g>
</svg>
