<svg xmlns="http://www.w3.org/2000/svg" viewBox="0 0 300 300">
  <defs>
    <style>
      .a {
        fill: #fff;
      }
    </style>
  </defs>
  <title>ranged</title>
  <g>
    <path class="a" d="M150,123a26.88,26.88,0,0,1,15,4.53L193,63.4H177a27,27,0,0,1-54,0H106.84l30,63A26.94,26.94,0,0,1,150,123Z"/>
    <path d="M150,124.5a25.32,25.32,0,0,1,14.35,4.44l1.22-2.79a28.42,28.42,0,0,0-29.33-1.1l1.29,2.72A25.31,25.31,0,0,1,150,124.5Z"/>
    <path d="M121.54,64.9a28.5,28.5,0,0,0,56.92,0H192.3l1.31-3H175.5v1.5a25.5,25.5,0,0,1-51,0V61.9H106.12l1.43,3Z"/>
    <path d="M153.5,92.63c0-4.51-7-4.52-7,0V113.5c0,4.5,7,4.51,7,0Z"/>
  </g>
</svg>
