<svg xmlns="http://www.w3.org/2000/svg" viewBox="0 0 300 300">
  <defs>
    <style>
      .a {
        fill: #fff;
        stroke: #000;
        stroke-miterlimit: 10;
      }
    </style>
  </defs>
  <title>shield</title>
  <g>
    <circle class="a" cx="150" cy="150" r="30"/>
    <path d="M134.41,135.9a151,151,0,0,0,31.24-.22c1.9-.21,1.92-3.21,0-3a151,151,0,0,1-31.24.22c-1.92-.18-1.91,2.82,0,3Z"/>
    <path d="M132.83,134.58c.12,3.84-.34,7.7.52,11.48a69.88,69.88,0,0,0,3.29,10.28,28.43,28.43,0,0,0,12.18,13.88,1.5,1.5,0,0,0,1.52-2.59,25.78,25.78,0,0,1-11.63-14.39c-.8-2.38-1.64-4.81-2.26-7.24-1-3.79-.5-7.56-.62-11.42-.07-1.92-3.07-1.93-3,0Z"/>
    <path d="M165.05,134.75a80.29,80.29,0,0,1-3,19.85c-2,6.74-5.86,10.61-11.83,14.08a1.5,1.5,0,0,0,1.52,2.59c5.54-3.22,10-6.9,12.31-13.06,2.73-7.41,3.72-15.61,4-23.46.06-1.93-2.94-1.92-3,0Z"/>
  </g>
</svg>
