<svg xmlns="http://www.w3.org/2000/svg" viewBox="0 0 300 300">
  <defs>
    <style>
      .a {
        fill: #fff;
      }
    </style>
  </defs>
  <title>weak</title>
  <g>
    <path class="a" d="M150,103.17A39.78,39.78,0,0,0,189.77,63.4H110.23A39.78,39.78,0,0,0,150,103.17Z"/>
    <path d="M111.76,64.9h76.48a.34.34,0,0,1,0,.1h3c0-.53,0-1.07,0-1.6V61.9H108.73v1.5c0,.53,0,1.07,0,1.6h3A.34.34,0,0,1,111.76,64.9Z"/>
  </g>
  <path d="M150.11,67.84l16.13,9.71-.61-4.71c-5.54,4.54-12.68,6.48-18.81,10.06-3.33,1.95-.32,7.14,3,5.18,6.63-3.87,14-6.07,20-11,1.54-1.26.92-3.8-.6-4.71l-16.13-9.71c-3.32-2-6.34,3.19-3,5.18Z"/>
  <path d="M156,84.18a39,39,0,0,0,12.38,7.73c3.59,1.42,5.15-4.38,1.6-5.78a31.4,31.4,0,0,1-9.74-6.19c-2.83-2.62-7.08,1.61-4.24,4.24Z"/>
</svg>
