<svg xmlns="http://www.w3.org/2000/svg" viewBox="0 0 300 300">
  <defs>
    <style>
      .a {
        fill: #fff;
      }
    </style>
  </defs>
  <title>wind</title>
  <g>
    <circle class="a" cx="150" cy="150" r="30"/>
    <path d="M153.64,131.83c-5.65-.48-11-.58-16.1,2.28a2,2,0,0,0-.72,2.74c2.21,3.63,7.56,2.72,11.25,2.91l20,1-1.73-3c-1.24,2.58-11.68,1.76-14.18,1.9q-7,.38-14,.62c-2.57.1-2.59,4,0,4a90.21,90.21,0,0,1,20.66,2.05l-.47-3.66c-4.69,2.67-10.52,3.44-15.72,4.72a2,2,0,0,0,0,3.85q11.16,2.55,22.46,4.29V151.7c-7.48,2.25-15.15,2.5-22.91,2.63a2,2,0,0,0-.53,3.93l7.44,2.51c1.87.63,5.93,1.18,7.09,3l1.73-3A71.21,71.21,0,0,0,143,163.52a2,2,0,0,0-1.4,2.46,8.62,8.62,0,0,0,4.07,5c2.21,1.33,4.22-2.13,2-3.46l-2.23-2.65-1.4,2.46a67,67,0,0,1,13.77-2.64,2,2,0,0,0,1.72-3c-1.24-1.91-2.67-2.47-4.82-3.24-4-1.42-8.07-2.72-12.1-4.08l-.53,3.93c8.12-.13,16.15-.43,24-2.77,1.73-.52,2.06-3.54,0-3.86q-11.31-1.75-22.46-4.28v3.85c5.58-1.37,11.62-2.24,16.67-5.11a2,2,0,0,0-.48-3.66,95,95,0,0,0-21.73-2.19v4c6.85-.25,13.71-.57,20.56-1,3.68-.23,9.19.46,11.1-3.5a2,2,0,0,0-1.73-3l-13.3-.69-5.7-.3c-1.47-.08-8,.3-8.75-1l-.71,2.74c4.4-2.5,9.22-2.15,14.08-1.74,2.56.22,2.55-3.78,0-4Z"/>
  </g>
</svg>
